<svg width="120" height="47" viewBox="0 0 120 47" fill="none" xmlns="http://www.w3.org/2000/svg">
<path d="M6.19 37.57C5.71 37.57 5.36 37.46 5.14 37.24C4.92 37.02 4.81 36.67 4.81 36.19V32.68C4.81 32.42 4.84 32.2 4.9 32.02C4.98 31.84 5.09 31.69 5.23 31.57L8.23 29.05C7.17 28.73 6.33 28.19 5.71 27.43C5.11 26.65 4.81 25.54 4.81 24.1V20.95C4.81 20.05 4.96 19.25 5.26 18.55C5.56 17.85 5.99 17.26 6.55 16.78L10.45 13.51C10.99 13.07 11.66 12.73 12.46 12.49C13.26 12.23 14.17 12.1 15.19 12.1H23.59C24.07 12.1 24.42 12.21 24.64 12.43C24.86 12.65 24.97 13 24.97 13.48V17.05C24.97 17.31 24.93 17.53 24.85 17.71C24.79 17.89 24.69 18.04 24.55 18.16L21.85 20.41C23.11 20.69 24.12 21.22 24.88 22C25.66 22.76 26.05 23.95 26.05 25.57V28.72C26.05 29.62 25.9 30.42 25.6 31.12C25.3 31.82 24.86 32.41 24.28 32.89L20.41 36.13C19.85 36.59 19.17 36.94 18.37 37.18C17.57 37.44 16.67 37.57 15.67 37.57H6.19ZM19.54 34C21.46 34 22.97 33.55 24.07 32.65C25.19 31.73 25.75 30.42 25.75 28.72V25.57C25.75 23.89 25.32 22.69 24.46 21.97C23.6 21.25 22.47 20.79 21.07 20.59L16.6 19.99C16.34 19.97 16.14 19.87 16 19.69C15.86 19.51 15.79 19.29 15.79 19.03C15.79 18.77 15.86 18.56 16 18.4C16.14 18.22 16.34 18.13 16.6 18.13H23.59C23.97 18.13 24.24 18.05 24.4 17.89C24.58 17.71 24.67 17.43 24.67 17.05V13.48C24.67 13.1 24.58 12.83 24.4 12.67C24.24 12.49 23.97 12.4 23.59 12.4H15.19C13.25 12.4 11.73 12.86 10.63 13.78C9.53 14.68 8.98 15.98 8.98 17.68V20.83C8.98 22.51 9.4 23.71 10.24 24.43C11.1 25.15 12.23 25.61 13.63 25.81L18.13 26.44C18.39 26.46 18.58 26.55 18.7 26.71C18.84 26.87 18.91 27.12 18.91 27.46C18.91 27.7 18.84 27.91 18.7 28.09C18.58 28.25 18.39 28.33 18.13 28.33H10.06C9.68 28.33 9.4 28.42 9.22 28.6C9.06 28.76 8.98 29.03 8.98 29.41V32.92C8.98 33.3 9.06 33.58 9.22 33.76C9.4 33.92 9.68 34 10.06 34H19.54ZM21.97 15.1V15.4H15.31C14.47 15.4 13.8 15.63 13.3 16.09C12.8 16.55 12.55 17.13 12.55 17.83V20.29C12.55 20.99 12.69 21.48 12.97 21.76C13.25 22.04 13.62 22.22 14.08 22.3L20.41 23.59C21.01 23.71 21.5 23.97 21.88 24.37C22.28 24.77 22.48 25.49 22.48 26.53V28.27C22.48 29.15 22.18 29.88 21.58 30.46C20.98 31.02 20.17 31.3 19.15 31.3H11.68V31H19.15C20.07 31 20.8 30.75 21.34 30.25C21.9 29.73 22.18 29.07 22.18 28.27V26.53C22.18 25.59 22.01 24.95 21.67 24.61C21.35 24.25 20.91 24.01 20.35 23.89L14.02 22.6C13.5 22.5 13.07 22.3 12.73 22C12.41 21.68 12.25 21.11 12.25 20.29V17.83C12.25 17.03 12.53 16.38 13.09 15.88C13.65 15.36 14.39 15.1 15.31 15.1H21.97ZM39.0977 26.2363H31.1143C31.0752 26.8223 31.0557 27.3398 31.0557 27.7891C31.085 29.2441 31.5098 30.4111 32.3301 31.29C33.1504 32.1592 34.249 32.5938 35.626 32.5938C35.9971 32.5938 36.3438 32.5547 36.666 32.4766C36.9883 32.3887 37.252 32.291 37.457 32.1836C37.6719 32.0762 37.8916 31.9199 38.1162 31.7148C38.3408 31.5098 38.502 31.3486 38.5996 31.2314C38.707 31.1045 38.8486 30.9189 39.0244 30.6748C39.2002 30.4209 39.3174 30.2598 39.376 30.1914C39.6104 30.2402 39.8008 30.3477 39.9473 30.5137C39.459 31.8223 38.7021 32.8037 37.6768 33.458C36.6514 34.1025 35.5381 34.4248 34.3369 34.4248C33.7412 34.4248 33.1602 34.3467 32.5938 34.1904C32.0371 34.0439 31.4951 33.7998 30.9678 33.458C30.4404 33.1162 29.9814 32.6963 29.5908 32.1982C29.2002 31.6904 28.8877 31.0605 28.6533 30.3086C28.4189 29.5469 28.3018 28.707 28.3018 27.7891C28.3018 25.7285 28.9316 24.0293 30.1914 22.6914C31.4512 21.3535 32.999 20.6846 34.835 20.6846C35.6455 20.6846 36.3486 20.8018 36.9443 21.0361C37.5498 21.2607 38.0186 21.5684 38.3506 21.959C38.6924 22.3496 38.9414 22.7793 39.0977 23.248C39.2637 23.707 39.3467 24.2002 39.3467 24.7275C39.3467 25.2158 39.2637 25.7188 39.0977 26.2363ZM34.4834 21.6367C33.8096 21.6367 33.1699 21.9346 32.5645 22.5303C31.9688 23.126 31.5391 24.0293 31.2754 25.2402H36.5488C36.6465 24.8691 36.6953 24.5469 36.6953 24.2734C36.6953 23.5117 36.5195 22.8818 36.168 22.3838C35.8164 21.8857 35.2549 21.6367 34.4834 21.6367ZM59.6348 33.3994C59.8789 33.3604 60.0791 33.3213 60.2354 33.2822C60.4014 33.2334 60.582 33.1602 60.7773 33.0625C60.9727 32.9648 61.1191 32.8281 61.2168 32.6523C61.3145 32.4668 61.3633 32.2471 61.3633 31.9932L61.3926 25.0352C61.3926 23.2676 60.8652 22.3838 59.8105 22.3838C59.2832 22.3838 58.7119 22.5498 58.0967 22.8818C57.4814 23.2139 56.7441 23.7119 55.8848 24.376V24.5518L56.002 31.9932C56.0117 32.2471 56.085 32.4668 56.2217 32.6523C56.3682 32.8281 56.5732 32.9648 56.8369 33.0625C57.1006 33.1602 57.3203 33.2334 57.4961 33.2822C57.6719 33.3213 57.9014 33.3604 58.1846 33.3994C58.2236 33.5947 58.2432 33.7266 58.2432 33.7949C58.2432 33.873 58.2236 33.9707 58.1846 34.0879C56.9248 34.0293 55.7773 34 54.7422 34C53.7949 34 52.6914 34.0293 51.4316 34.0879C51.3926 33.9316 51.373 33.8145 51.373 33.7363C51.373 33.668 51.3926 33.5557 51.4316 33.3994C51.6758 33.3604 51.8809 33.3213 52.0469 33.2822C52.2129 33.2334 52.3936 33.1602 52.5889 33.0625C52.7842 32.9648 52.9307 32.8281 53.0283 32.6523C53.126 32.4668 53.1748 32.2471 53.1748 31.9932L53.2041 25.0352C53.2041 23.2676 52.6768 22.3838 51.6221 22.3838C51.0947 22.3838 50.5332 22.5449 49.9375 22.8672C49.3516 23.1895 48.6143 23.6826 47.7256 24.3467C47.7256 27.208 47.7646 29.7568 47.8428 31.9932C47.8525 32.2471 47.9209 32.4668 48.0479 32.6523C48.1748 32.8281 48.3555 32.9648 48.5898 33.0625C48.834 33.1602 49.0439 33.2334 49.2197 33.2822C49.3955 33.3213 49.6152 33.3604 49.8789 33.3994C49.9375 33.5166 49.9668 33.6387 49.9668 33.7656C49.9668 33.8633 49.9375 33.9707 49.8789 34.0879C48.5898 34.0293 47.3887 34 46.2754 34C45.084 34 43.8438 34.0293 42.5547 34.0879C42.5156 33.9316 42.4961 33.8242 42.4961 33.7656C42.4961 33.7168 42.5156 33.5947 42.5547 33.3994C42.877 33.3604 43.1406 33.3213 43.3457 33.2822C43.5508 33.2334 43.8047 33.1602 44.1074 33.0625C44.4102 32.9648 44.6396 32.8281 44.7959 32.6523C44.9521 32.4668 45.0352 32.2471 45.0449 31.9932C45.084 31.0264 45.1035 29.8545 45.1035 28.4775C45.1035 28.0186 45.0986 27.2373 45.0889 26.1338C45.0791 25.0303 45.0742 24.0635 45.0742 23.2334C44.5176 22.8916 43.5801 22.6914 42.2617 22.6328C42.2227 22.4766 42.2031 22.3545 42.2031 22.2666C42.2031 22.208 42.2227 22.1006 42.2617 21.9443C44.1562 21.749 45.8066 21.3486 47.2129 20.7432C47.457 20.8408 47.6279 20.9678 47.7256 21.124V23.4385C48.1846 23.0186 48.5703 22.6816 48.8828 22.4277C49.1953 22.1641 49.5762 21.8809 50.0254 21.5781C50.4844 21.2754 50.9385 21.0508 51.3877 20.9043C51.8467 20.7578 52.3154 20.6846 52.7939 20.6846C53.751 20.6846 54.4639 20.9141 54.9326 21.373C55.4014 21.8223 55.6943 22.5303 55.8115 23.4971C56.3096 23.0479 56.7051 22.7012 56.998 22.457C57.3008 22.2129 57.6914 21.9297 58.1699 21.6074C58.6484 21.2852 59.1172 21.0508 59.5762 20.9043C60.0352 20.7578 60.5039 20.6846 60.9824 20.6846C62.0859 20.6846 62.8721 20.9971 63.3408 21.6221C63.8096 22.2471 64.0537 23.2236 64.0732 24.5518L64.2197 31.9932C64.2295 32.2471 64.3027 32.4668 64.4395 32.6523C64.5859 32.8281 64.791 32.9648 65.0547 33.0625C65.3184 33.1602 65.5381 33.2334 65.7139 33.2822C65.8896 33.3213 66.1191 33.3604 66.4023 33.3994C66.4512 33.6436 66.4756 33.7754 66.4756 33.7949C66.4756 33.8438 66.4512 33.9414 66.4023 34.0879C65.1426 34.0293 63.9854 34 62.9307 34C61.9932 34 60.8945 34.0293 59.6348 34.0879C59.5859 33.8926 59.5615 33.7754 59.5615 33.7363C59.5615 33.707 59.5859 33.5947 59.6348 33.3994ZM68.1895 12.9355C70.0449 12.7598 71.6904 12.3594 73.126 11.7344C73.3896 11.8418 73.5605 11.9736 73.6387 12.1299C73.6387 23.1943 73.6777 29.8154 73.7559 31.9932C73.7656 32.1982 73.8242 32.3838 73.9316 32.5498C74.0488 32.7061 74.1758 32.833 74.3125 32.9307C74.4492 33.0186 74.6348 33.1016 74.8691 33.1797C75.1035 33.248 75.2842 33.2969 75.4111 33.3262C75.5479 33.3457 75.7285 33.3701 75.9531 33.3994C76.0117 33.5166 76.041 33.6387 76.041 33.7656C76.041 33.8926 76.0117 34 75.9531 34.0879C74.6641 34.0293 73.4141 34 72.2031 34C71.0117 34 69.7715 34.0293 68.4824 34.0879C68.4434 33.9316 68.4238 33.8242 68.4238 33.7656C68.4238 33.7168 68.4434 33.5947 68.4824 33.3994C68.8047 33.3604 69.0635 33.3213 69.2588 33.2822C69.4639 33.2334 69.7178 33.1602 70.0205 33.0625C70.333 32.9648 70.5674 32.8281 70.7236 32.6523C70.8799 32.4668 70.9629 32.2471 70.9727 31.9932C71.0117 31.0264 71.0312 28.8633 71.0312 25.5039C71.0312 23.9512 71.0264 21.8369 71.0166 19.1611C71.0068 16.4854 71.002 14.8398 71.002 14.2246C70.4453 13.9023 69.5078 13.7021 68.1895 13.624C68.1406 13.4971 68.1162 13.3799 68.1162 13.2725C68.1162 13.1748 68.1406 13.0625 68.1895 12.9355ZM78.0625 21.9443C79.957 21.749 81.6074 21.3486 83.0137 20.7432C83.2578 20.8408 83.4287 20.9678 83.5264 21.124C83.5264 26.1924 83.5654 29.8154 83.6436 31.9932C83.6533 32.2471 83.7266 32.4668 83.8633 32.6523C84.0098 32.8281 84.2148 32.9648 84.4785 33.0625C84.7422 33.1602 84.9619 33.2334 85.1377 33.2822C85.3135 33.3213 85.543 33.3604 85.8262 33.3994C85.8848 33.5166 85.9141 33.6387 85.9141 33.7656C85.9141 33.8926 85.8848 34 85.8262 34.0879C84.5371 34.0293 83.2871 34 82.0762 34C80.8848 34 79.6445 34.0293 78.3555 34.0879C78.3164 33.9316 78.2969 33.8242 78.2969 33.7656C78.2969 33.7168 78.3164 33.5947 78.3555 33.3994C78.6777 33.3604 78.9414 33.3213 79.1465 33.2822C79.3516 33.2334 79.6055 33.1602 79.9082 33.0625C80.2109 32.9648 80.4404 32.8281 80.5967 32.6523C80.7529 32.4668 80.8359 32.2471 80.8457 31.9932C80.8848 31.0264 80.9043 29.8545 80.9043 28.4775C80.9043 28.0186 80.8994 27.2373 80.8896 26.1338C80.8799 25.0303 80.875 24.0635 80.875 23.2334C80.3184 22.8916 79.3809 22.6914 78.0625 22.6328C78.0234 22.4766 78.0039 22.3545 78.0039 22.2666C78.0039 22.208 78.0234 22.1006 78.0625 21.9443ZM80.3623 15.8213C80.3623 15.3232 80.5381 14.8984 80.8896 14.5469C81.251 14.1953 81.6758 14.0195 82.1641 14.0195C82.6621 14.0195 83.0869 14.1953 83.4385 14.5469C83.79 14.8984 83.9658 15.3232 83.9658 15.8213C83.9658 16.3096 83.79 16.7344 83.4385 17.0957C83.0869 17.4473 82.6621 17.623 82.1641 17.623C81.6758 17.623 81.251 17.4473 80.8896 17.0957C80.5381 16.7344 80.3623 16.3096 80.3623 15.8213ZM99.7568 30.1914C99.9912 30.2402 100.182 30.3477 100.328 30.5137C99.8398 31.8223 99.083 32.8037 98.0576 33.458C97.0322 34.1025 95.9189 34.4248 94.7178 34.4248C94.1221 34.4248 93.541 34.3467 92.9746 34.1904C92.4082 34.0439 91.8564 33.7998 91.3193 33.458C90.792 33.1162 90.3281 32.6963 89.9277 32.1982C89.5371 31.6904 89.2197 31.0605 88.9756 30.3086C88.7412 29.5469 88.624 28.707 88.624 27.7891C88.624 25.6699 89.2734 23.9561 90.5723 22.6475C91.8711 21.3389 93.4922 20.6846 95.4355 20.6846C96.8027 20.6846 97.916 20.9824 98.7754 21.5781C99.6445 22.1641 100.079 22.916 100.079 23.834C100.079 24.3516 99.9082 24.7812 99.5664 25.123C99.2246 25.4648 98.8047 25.6357 98.3066 25.6357C97.7793 25.6357 97.3545 25.4844 97.0322 25.1816C96.71 24.8691 96.5488 24.5078 96.5488 24.0977C96.5488 23.3555 96.9248 22.8867 97.6768 22.6914C97.6084 22.4668 97.3887 22.2373 97.0176 22.0029C96.6465 21.7588 96.1191 21.6367 95.4355 21.6367C95.084 21.6367 94.752 21.6807 94.4395 21.7686C94.127 21.8467 93.79 22.0176 93.4287 22.2812C93.0771 22.5449 92.7744 22.8916 92.5205 23.3213C92.2764 23.751 92.0713 24.3516 91.9053 25.123C91.7393 25.8848 91.6562 26.7734 91.6562 27.7891C91.6562 28.4727 91.7246 29.0928 91.8613 29.6494C92.0078 30.2061 92.2324 30.709 92.5352 31.1582C92.8379 31.6074 93.2529 31.959 93.7803 32.2129C94.3076 32.4668 94.9277 32.5938 95.6406 32.5938C96.0898 32.5938 96.5146 32.5352 96.915 32.418C97.3154 32.291 97.6377 32.1592 97.8818 32.0225C98.1357 31.8857 98.4043 31.6807 98.6875 31.4072C98.9805 31.124 99.1758 30.9238 99.2734 30.8066C99.3711 30.6797 99.5322 30.4746 99.7568 30.1914Z" fill="black"/>
<path fill-rule="evenodd" clip-rule="evenodd" d="M110.483 29.5859C110.483 29.7932 110.31 29.9654 110.103 29.9654L107.069 29.9654C106.862 29.9654 106.689 29.7932 106.689 29.5859V26.5514C106.689 26.3447 106.862 26.1724 107.069 26.1724H110.103C110.31 26.1724 110.483 26.3447 110.483 26.5514V29.5859Z" fill="#299626"/>
<path fill-rule="evenodd" clip-rule="evenodd" d="M115 29.5859C115 29.7932 114.827 29.9654 114.62 29.9654L111.586 29.9654C111.379 29.9654 111.207 29.7932 111.207 29.5859V26.5514C111.207 26.3447 111.379 26.1724 111.586 26.1724H114.62C114.827 26.1724 115 26.3447 115 26.5514V29.5859Z" fill="#299626"/>
<path fill-rule="evenodd" clip-rule="evenodd" d="M115 38.6897C115 38.8962 114.827 39.0686 114.62 39.0686L111.586 39.0686C111.379 39.0686 111.207 38.8962 111.207 38.6897V35.6549C111.207 35.4477 111.379 35.2753 111.586 35.2753H114.62C114.827 35.2753 115 35.4477 115 35.655V38.6897Z" fill="#299626"/>
<path fill-rule="evenodd" clip-rule="evenodd" d="M105.931 34.1378C105.931 34.3443 105.759 34.5167 105.552 34.5167H102.517C102.311 34.5167 102.138 34.3444 102.138 34.1378V31.1032C102.138 30.8965 102.311 30.7241 102.517 30.7241H105.552C105.759 30.7241 105.931 30.8965 105.931 31.1032V34.1378Z" fill="#299626"/>
<path fill-rule="evenodd" clip-rule="evenodd" d="M110.483 34.1378C110.483 34.3443 110.31 34.5167 110.103 34.5167H107.069C106.862 34.5167 106.689 34.3444 106.689 34.1378V31.1032C106.689 30.8965 106.862 30.7241 107.069 30.7241H110.103C110.31 30.7241 110.483 30.8965 110.483 31.1032V34.1378Z" fill="#299626"/>
<path fill-rule="evenodd" clip-rule="evenodd" d="M105.931 38.6897C105.931 38.8962 105.759 39.0686 105.552 39.0686L102.517 39.0686C102.311 39.0686 102.138 38.8962 102.138 38.6897V35.6549C102.138 35.4477 102.311 35.2753 102.517 35.2753H105.552C105.759 35.2753 105.931 35.4477 105.931 35.655V38.6897Z" fill="#299626"/>
<path fill-rule="evenodd" clip-rule="evenodd" d="M110.483 38.6897C110.483 38.8962 110.31 39.0686 110.103 39.0686L107.069 39.0686C106.862 39.0686 106.689 38.8962 106.689 38.6897V35.6549C106.689 35.4477 106.862 35.2753 107.069 35.2753H110.103C110.31 35.2753 110.483 35.4477 110.483 35.655V38.6897Z" fill="#299626"/>
<path fill-rule="evenodd" clip-rule="evenodd" d="M105.931 43.2065C105.931 43.4132 105.759 43.5861 105.552 43.5861L102.517 43.5861C102.311 43.5861 102.138 43.4132 102.138 43.2065V40.1718C102.138 39.9652 102.311 39.7928 102.517 39.7928H105.552C105.759 39.7928 105.931 39.9652 105.931 40.1718V43.2065Z" fill="#299626"/>
<path fill-rule="evenodd" clip-rule="evenodd" d="M110.483 43.2065C110.483 43.4132 110.31 43.5861 110.103 43.5861L107.069 43.5861C106.862 43.5861 106.689 43.4132 106.689 43.2065V40.1718C106.689 39.9652 106.862 39.7928 107.069 39.7928H110.103C110.31 39.7928 110.483 39.9652 110.483 40.1718V43.2065Z" fill="#299626"/>
<path fill-rule="evenodd" clip-rule="evenodd" d="M106.138 28.0686C106.138 29.2069 105.207 30.1378 104.069 30.1378C102.931 30.1378 102 29.2069 102 28.0686C102 26.931 102.931 26 104.069 26C105.207 26 106.138 26.931 106.138 28.0686Z" fill="#C90015"/>
</svg>
